<?xml version="1.0" encoding="UTF-8"?>
<svg id="LOGO" xmlns="http://www.w3.org/2000/svg" version="1.1" viewBox="399 367 2192 2192">
  <!-- Generator: Adobe Illustrator 30.1.0, SVG Export Plug-In . SVG Version: 2.1.1 Build 136)  -->
  <defs>
    <style>
      .st0 {
        fill: #5F6C33;
      }
    </style>
  </defs>
  <g id="Rings">
    <g>
      <path class="st0" d="M2323.64,1153c-.32.22-.64.43-.96.65-21.29,14.25-30.48,40.84-21.97,65,29.57,83.96,44.73,174.72,42.4,269.33-9.78,396.89-350.78,731.87-747.78,734.9-421.37,3.22-763.53-339.27-759.76-760.77,3.58-400.61,342.61-741.4,743.2-746.94,171.33-2.37,329.77,52.43,457.46,146.53,20.43,15.06,48.41,14.52,68.3-1.24l1.13-.9c29.21-23.14,28.5-67.75-1.46-89.92-148.26-109.73-332.63-173.46-532.03-170.02-449.91,7.76-839.18,390.84-853.71,840.58-16.01,495.58,382.84,901.97,875.68,898.29,470.37-3.51,855.86-386.1,862.78-856.44,1.56-106-15.91-207.7-49.14-301.97-12.18-34.55-53.8-47.6-84.15-27.08Z"/>
      <path class="st0" d="M2348.38,2035.45c-170.79,226.93-440.68,375.03-745.42,379.88-523.72,8.34-959.6-413.93-967.11-937.66-7.01-488.72,354.39-894.4,824.3-957.25,28.21-3.77,49.18-28.01,49.18-56.48h0c0-34.86-30.95-61.34-65.47-56.47-516.65,72.86-913.69,518.01-911.01,1055.38,2.91,584.71,475.73,1055.05,1060.45,1055.05,343.73,0,649.24-163.56,843-417.08,22.57-29.54,8.9-72.34-26.31-84.25-.36-.12-.72-.24-1.08-.36-22.17-7.45-46.47.56-60.53,19.25Z"/>
      <path class="st0" d="M1587.52,799.93c-369.51,0-669.07,299.55-669.07,669.07s299.55,669.07,669.07,669.07,669.07-299.55,669.07-669.07-299.55-669.07-669.07-669.07ZM1593.08,2032.45c-311.19,0-563.45-252.27-563.45-563.45s252.27-563.45,563.45-563.45,563.45,252.27,563.45,563.45-252.27,563.45-563.45,563.45Z"/>
    </g>
  </g>
</svg>