<?xml version="1.0"?>
<svg id="LOGO" xmlns="http://www.w3.org/2000/svg" version="1.1" viewBox="430 1175 2120 660">
  
  <defs>
    
  </defs>
  <g id="Rings">
    <g>
      <g id="HEAL">
        <path fill="#CCAF87" d="M1071.92,1258.3h45.86c1.12,0,2.03.91,2.03,2.03v158.48h203.45v-158.66c0-1.12.91-2.03,2.03-2.03h45.21c1.12,0,2.03.91,2.03,2.03v372.21c0,1.12-.91,2.03-2.03,2.03h-45.18c-1.12,0-2.03-.91-2.03-2.03v-174.32h-203.48v174.32c0,1.12-.91,2.03-2.03,2.03h-45.86c-1.12,0-2.03-.91-2.03-2.03v-372.03c0-1.12.91-2.03,2.03-2.03Z"></path>
        <path fill="#CCAF87" d="M1473.5,1258.12h223.73c1.12,0,2.03.91,2.03,2.03v36.89c0,1.12-.91,2.03-2.03,2.03h-178.06v120.77h156.28c1.14,0,2.05.93,2.04,2.06l-.33,36.03c-.01,1.12-.92,2.03-2.04,2.03h-154.87l-1.08,134.79h181.31c1.12,0,2.03.91,2.03,2.03v35.6c0,1.12-.91,2.03-2.03,2.03h-226.99v-376.28Z"></path>
        <path fill="#CCAF87" d="M1979.76,1256.09h15.92c.79,0,1.51.45,1.84,1.17l176.54,374.24c.64,1.35-.35,2.9-1.84,2.9h-47.78c-.78,0-1.48-.44-1.83-1.14l-42.49-86.47h-184.22l-39.9,86.43c-.33.72-1.05,1.18-1.85,1.18h-46.73c-1.48,0-2.47-1.54-1.85-2.89l172.32-374.24c.33-.72,1.06-1.19,1.85-1.19ZM1988.15,1348.38l-71.77,159.66h147.5l-75.73-159.66Z"></path>
        <path fill="#CCAF87" d="M2307.28,1256.09h46.14c1.13,0,2.04.91,2.04,2.04v338.1h167.26c1.09,0,1.97.88,1.97,1.97v34.24c0,1.09-.88,1.97-1.97,1.97h-217.48v-376.27c0-1.13.91-2.04,2.04-2.04Z"></path>
      </g>
      <g id="house">
        <path fill="#CCAF87" d="M1423.14,1707.7h6.12v48.78h72.76v-48.78h6.76v99.48h-6.76v-46.8h-72.76v46.8h-6.12v-99.48Z"></path>
        <path fill="#CCAF87" d="M1576.41,1759.52c0-7.52,1.4-14.44,4.21-20.76,2.81-6.31,6.72-11.77,11.71-16.37,5-4.6,11.01-8.19,18.04-10.8,20.02-7.41,45.16-5.52,61.36,9.38,5,4.6,8.9,10.05,11.71,16.37,2.81,6.32,4.22,13.23,4.22,20.76,0,22.18-9.43,38.77-30.91,46.58-7.03,2.55-14.76,3.83-23.19,3.83s-16.16-1.28-23.19-3.83c-7.03-2.55-13.04-6.13-18.04-10.73-4.99-4.6-8.9-10.08-11.71-16.44-2.81-6.36-4.22-10.47-4.22-18ZM1585.17,1758.1c0,6.33,1.11,12.23,3.33,17.69,2.22,5.47,5.4,10.21,9.53,14.24,4.13,4.03,9.12,7.19,15,9.49,5.87,2.3,12.46,3.45,19.76,3.45s13.89-1.15,19.76-3.45c5.87-2.3,10.87-5.47,15-9.49,4.13-4.03,7.3-8.77,9.52-14.24,2.22-5.47,3.33-11.36,3.33-17.69s-1.11-12.23-3.33-17.69c-2.22-5.47-5.4-10.21-9.52-14.24-4.13-4.03-9.13-7.19-15-9.49-5.87-2.3-12.46-3.45-19.76-3.45s-13.89,1.15-19.76,3.45c-5.87,2.3-10.87,5.47-15,9.49-4.13,4.03-7.3,8.77-9.53,14.24-2.22,5.47-3.33,11.36-3.33,17.69Z"></path>
        <path fill="#CCAF87" d="M1840.8,1768.43c0,5.47-.71,10.71-2.14,15.7-1.43,4.99-3.81,9.41-7.16,13.25-3.35,3.84-7.73,6.91-13.16,9.22-5.43,2.3-12.09,3.46-19.99,3.46s-14.56-1.15-19.99-3.46c-5.43-2.3-9.82-5.37-13.16-9.22-3.35-3.84-5.73-8.25-7.16-13.25-1.43-4.99-2.14-10.22-2.14-15.7v-61.05h7.52v60.84c0,3.65.38,7.54,1.15,11.66.77,4.13,2.27,7.97,4.52,11.52,2.25,3.55,5.43,6.48,9.54,8.78,4.11,2.3,12.91,3.46,19.71,3.46s14.39-1.15,18.5-3.46c4.11-2.3,7.29-5.23,9.54-8.78,2.25-3.55,3.76-7.39,4.52-11.52.77-4.13,1.15-8.01,1.15-11.66v-60.84h8.73v61.05Z"></path>
        <path fill="#CCAF87" d="M1910.39,1791.73c.52-.29,1.15-.13,1.51.33,2.77,3.61,6.55,6.04,10.73,7.89,8,3.54,20.35,3.36,28.65,1.25,5.99-1.52,11.73-5.07,14.57-10.56,2.61-5.04,2.43-11.37-.28-16.36-3.61-6.63-10.56-9.07-17.39-11-3.51-.99-7.14-1.99-10.87-2.98-9.34-2.49-21.45-5.97-27.3-14.32-7.34-10.48-2.27-25.03,7.77-31.57,3.4-2.22,7.32-3.89,11.76-5.02,4.43-1.13,9.08-1.7,13.95-1.7,6.27,0,12.1.89,17.44,2.78,1.06.37,4.08,1.7,7.58,4.96.59.55.51,1.51-.17,1.93l-2.72,1.69c-.5.31-1.14.2-1.54-.23-2.44-2.6-4.72-3.64-8.17-4.72-4.65-1.45-9.65-2.05-14.63-2.05-10.48,0-21.73,3.68-25.77,15.09-.73,2.06-1.08,4.26-1.15,6.44-.19,6.54,1.77,10.19,6.35,12.6,3.81,2,7.92,3.6,11.99,4.99,4.38,1.49,9.14,2.8,14.28,3.93,12.03,2.65,24.91,6.99,28.82,20.32,1.37,4.66,1.34,9.68-.12,14.3-4.72,15.01-21.03,20.29-34.79,20.29-7.57,0-14.55-1.11-20.93-3.32-5.92-2.05-11.05-5.41-15.38-10.08-.52-.56-.36-1.47.3-1.84l5.5-3.07Z"></path>
        <path fill="#CCAF87" d="M2043.27,1708.41h68.11v6.76s-59.53,0-59.53,0l.04,39.47h50.65v5.3h-50.69v42.36h59.52v6.16h-68.1v-100.05Z"></path>
      </g>
      <g id="left_line">
        <rect fill="#CCAF87" x="1073.29" y="1765.04" width="212.28" height="4.07"></rect>
      </g>
      <g id="right_line">
        <rect fill="#CCAF87" x="2266.35" y="1765.04" width="251.17" height="4.07"></rect>
      </g>
      <path fill="#CCAF87" d="M904.47,1377.98c-.09.06-.18.12-.26.18-5.81,3.89-8.32,11.14-5.99,17.73,8.07,22.91,12.2,47.67,11.57,73.49-2.67,108.29-95.71,199.69-204.03,200.52-114.97.88-208.33-92.57-207.3-207.57.98-109.31,93.48-202.29,202.78-203.8,46.75-.65,89.98,14.3,124.82,39.98,5.57,4.11,13.21,3.96,18.64-.34l.31-.25c7.97-6.31,7.77-18.48-.4-24.53-40.45-29.94-90.76-47.33-145.16-46.39-122.76,2.12-228.97,106.64-232.93,229.35-4.37,135.22,104.46,246.1,238.93,245.1,128.34-.96,233.52-105.35,235.41-233.68.43-28.92-4.34-56.67-13.41-82.39-3.32-9.43-14.68-12.99-22.96-7.39Z"></path>
      <path fill="#CCAF87" d="M911.22,1618.75c-46.6,61.92-120.24,102.33-203.39,103.65-142.89,2.27-261.82-112.94-263.87-255.84-1.91-133.35,96.7-244.04,224.91-261.18,7.7-1.03,13.42-7.64,13.42-15.41h0c0-9.51-8.44-16.74-17.86-15.41-140.97,19.88-249.3,141.34-248.57,287.96.79,159.54,129.8,287.87,289.34,287.87,93.79,0,177.14-44.63,230.01-113.8,6.16-8.06,2.43-19.74-7.18-22.99-.1-.03-.2-.07-.29-.1-6.05-2.03-12.68.15-16.52,5.25Z"></path>
      <path fill="#CCAF87" d="M703.62,1281.64c-100.82,0-182.55,81.73-182.55,182.55s81.73,182.55,182.55,182.55,182.55-81.73,182.55-182.55-81.73-182.55-182.55-182.55ZM705.13,1617.93c-84.91,0-153.74-68.83-153.74-153.74s68.83-153.74,153.74-153.74,153.74,68.83,153.74,153.74-68.83,153.74-153.74,153.74Z"></path>
    </g>
  </g>
</svg>