<?xml version="1.0" encoding="UTF-8"?>
<svg xmlns="http://www.w3.org/2000/svg" xmlns:xlink="http://www.w3.org/1999/xlink" viewBox="178 83 905 968">
  <defs>
    <style>
      .cls-1 { fill: none; }
      .cls-2, .cls-3, .cls-4, .cls-5, .cls-6, .cls-7, .cls-8, .cls-9, .cls-10, .cls-11, .cls-12, .cls-13 { fill: #efe7d5; }
    </style>
    <linearGradient id="linear-gradient" x1="-1051.45" y1="1702.53" x2="-1051.45" y2="1915.22" gradientTransform="translate(1587 -1164.79)" gradientUnits="userSpaceOnUse">
      <stop offset="0" stop-color="#b9c4b5"/>
      <stop offset=".02" stop-color="#bec8bb" stop-opacity=".93"/>
      <stop offset=".11" stop-color="#d4dbd2" stop-opacity=".63"/>
      <stop offset=".19" stop-color="#e6e9e5" stop-opacity=".4"/>
      <stop offset=".26" stop-color="#f2f4f2" stop-opacity=".24"/>
      <stop offset=".32" stop-color="#fafafb" stop-opacity=".14"/>
      <stop offset=".36" stop-color="#fdfdfe" stop-opacity=".1"/>
    </linearGradient>
    <linearGradient id="linear-gradient-2" x1="757.1" y1="566.45" x2="757.1" y2="668.11" gradientUnits="userSpaceOnUse">
      <stop offset="0" stop-color="#9dafbb"/>
      <stop offset=".89" stop-color="#fff" stop-opacity="0"/>
    </linearGradient>
    <linearGradient id="linear-gradient-3" x1="763.42" y1="510.3" x2="771.24" y2="599.71" gradientUnits="userSpaceOnUse">
      <stop offset="0" stop-color="#9dafbb"/>
      <stop offset=".87" stop-color="#b7c4cd" stop-opacity="0"/>
    </linearGradient>
    <linearGradient id="linear-gradient-4" x1="549" y1="603.78" x2="566.98" y2="705.7" gradientUnits="userSpaceOnUse">
      <stop offset="0" stop-color="#b9c4b5"/>
      <stop offset=".85" stop-color="#b9c4b5" stop-opacity="0"/>
    </linearGradient>
  </defs>
  <g id="Layer_3" data-name="Layer 3">
    <g id="gradients">
      <g>
        <path class="cls-6" d="M610.3,599.3c6.12,6.02,11.45,12.72,15.28,20.59,2.22,4.56,3.4,9.44,5.01,14.22.65,1.93,6.16,11.63,2.75,10.59-2.5-.76-14.22-5.99-16.06-6.78-20.49-8.82-27.22-11.71-27.22-11.71-4.35-2.23-43.42-17.95-58.5-17.77-9.74.12-19.57,2.04-28.75,5.52-3.86,1.46-7.57,3.3-11.08,5.46-4.69,2.89-9.02,6.32-13.33,9.75-2.03,1.61-4.06,3.22-6.03,4.89-1.71,1.45-3.22,3.73-5.19,4.79-4.78,2.57-10.89-5.66-13.52-8.73-9.25-10.77-14.95-24.74-16.57-38.81-.93-8.04-.64-17.07,3.48-24.27,4.14-7.23,11.77-13.14,18.75-17.44,5.79-3.57,12.06-6.33,18.54-8.35,34.04-10.62,67.29,4.34,93.47,25.2,12.37,9.86,27.44,21.49,38.97,32.85Z"/>
        <path class="cls-4" d="M865.41,590.74c-1.15-1-2.31-1.99-3.48-2.96-4.35-3.61-9.04-6.82-13.98-9.57-9.69-5.38-20.33-8.92-31.28-10.59s-22.33-1.49-33.34.29-21.26,4.99-31.19,9.47c-15.61,7.03-29.6,17.03-44.01,26.16-16.65,10.56-33.39,21.9-51.03,30.72-8.81,4.41-18.61,5.39-27.52,8.99,8.56,6.39,16.69,1.62,25.25-1.15,9.59-3.1,20.52-5.05,30.61-5.26,0,0,47.6-1,47.6-1,22.53-.47,43.44-5.35,62.75-16.54l16.58-8.41c5.07-2.57,11.21-1.91,15.55,1.22,10.41,7.48,4.18,22.94-3.05,34.53-5.56,8.93-14.94,13.57-21.21,21.46,23.27-6.18,46.39-24.13,62.29-41.68,3.99-4.05,7.99-8.1,11.98-12.14,2.54-2.58,3.98-3.93,6.08-5.97,2.21-2.14-2.34-5.02-3.78-5.98-5.28-3.5-10.05-7.45-14.84-11.59Z"/>
        <path class="cls-3" d="M792.27,505.69c-24.66,8.36-46.3,23.21-66.72,39.02-16.94,13.12-33.21,27.06-49.53,40.92-14.76,12.53-28.91,23.98-39.22,40.66-1.74,2.82-2.99,6.06-4.12,9.24-.91,2.56.77,5.4,3.48,5.66,7.61.74,16.96-4.48,22.47-7.47,20.98-11.35,50.47-30.82,70.47-43.8,42.8-27.83,93.99-35.23,136.29.84.03.02.05.05.08.07,3.3,3.33,18.69,20.62,22.17,13.62,6.1-12.26,22.99-67.38,19.62-70.91-30.65-32.14-72.85-42.15-114.98-27.88Z"/>
        <path class="cls-2" d="M642.1,647.51c-2.09-.23-4.63-.98-7.04-2.04-14.52-6.44-29.33-12.18-43.82-18.71-13.96-6.29-27.67-12.85-42.74-16.12-6.45-1.4-13.08-2.25-19.69-2.25-22.94-.13-40.85,11.89-57.42,26.3.55-.48-1.82,1.42-1.81,1.95.07,7.69,8.04,15.9,12.65,21.47,6.59,7.96,14.12,14.85,21.63,21.91,9.86,9.25,19.89,18.88,32.11,24.98,12.67,6.32,27.98,2.1,39.77-4.47,17.75-9.88,29.6-26.84,45.15-39.42,6.76-5.47,13.59-9.67,21.21-13.6ZM544.7,706.17s.03,0,.05-.01c0,0,0,.01,0,.02h-.06Z"/>
      </g>
    </g>
  </g>
  <g id="v_logo_no_gradeient" data-name="v logo no gradeient">
    <g>
      <path class="cls-13" d="M937.35,394.78c-10.17-58.69-35.82-113.35-74.53-158.56-22.05-25.75-48.67-45.85-78.68-60.47-.71.44-.67.79.04,1.2,60.49,41.19,102.74,102.43,124.57,171.88,5.04,16.02,8.46,32.47,11.2,49.07,8.3,50.46,3.38,102.61-8.5,152.18,0,0-6.26,26.1-6.26,26.1,4.42-5.01,6.21-10.47,8.54-15.57,23.29-51.11,33.35-109.72,23.62-165.83Z"/>
      <g>
        <path class="cls-1" d="M548.83,717.25c1.13.03,2.27.05,3.41.04-1.16-.05-2.29-.07-3.41-.04Z"/>
        <path class="cls-8" d="M579.86,752.77c75.23,24.24,157.12,14.78,225.2-25.82,34.25-20.42,63.99-46.74,88.72-78.2,21.19-26.96,36.79-57.07,47.7-89.45.27-.79-.39-1.61-1.22-1.51-7.42.89-12.09,5.29-17.02,9.5l-3.02,2.58c-.07.06-.14.13-.19.21l-14.94,21.06c-11.37,16.03-22.85,31.2-37.01,44.92-36.42,35.28-82.82,56.47-134.07,55.3-10.59-.24-20.37,1.76-29.91,5.01-1.3.44-2.13-1.35-.96-2.06,12.22-7.44,25.8-10.69,40.14-11.95,23.34-2.05,44.81-10.05,61.93-26.13,9.84-9.24,23.84-27.98,17.42-35.25-4.55-5.15-15.91,2-24.63,6.97-22.28,12.71-46.3,18.27-71.98,17.41-17.57-.59-34.35-.28-51.56,2.09-22.36,3.07-41.86,12.45-57.81,28.18l-16.63,16.4c-7.1,7-14.62,12.95-23.04,17.93-.04.02-.08.04-.12.06-7.34,3.45-16.27,6.01-24.53,7.26-.06,0-.12.01-.19.01-1.11,0-2.22-.01-3.32-.04-6.99-.2-13.8-1.08-20.61-2.24-.05,0-.09-.02-.14-.03-21.9-6.26-35.92-14.07-54.81-25.01l-9.29-5.38s-.1-.05-.15-.07c-24.29-10.08-44.59-4.62-69.14,5.62-.79.33-.95,1.4-.29,1.94,24.99,20.69,47.71,26.94,78.5,16.79,0,0,11.41-3.76,14.18-4.67.38-.12.78-.04,1.08.22,14.58,12.39,30.81,22.77,47.91,31.31,8.55,4.27,17.32,8.07,26.27,11.42,4.4,1.65,9.19,3.91,13.82,4.76M587.51,711.02s.03-.02.12-.02c-.04,0-.08.02-.12.02Z"/>
      </g>
      <path class="cls-5" d="M634.37,629.13c.1.04.2.07.3.08-.12-.1-.22-.13-.3-.08Z"/>
      <path class="cls-10" d="M1042.82,992.7l-84.72,2.45c-1.59.05-1.21-4.57-.38-4.65l85.11,2.19Z"/>
      <path class="cls-10" d="M217.77,992.96l84.72-2.45c1.59-.05,1.21,4.57.38,4.65l-85.11-2.19Z"/>
      <path class="cls-7" d="M687.98,131.19c-24.64-6.67-49.78-9.29-76.03-8.26-74.74,2.94-144.85,34.88-196.52,87.76-23.91,24.47-42.73,53.57-56.58,85.13l-1.32,3.02-3.78,9.91c-12.55,32.85-17.39,68.1-14.02,103.16,2.03,21.12,5.98,42.4,13.08,62.34,1.92,5.39,4.12,10.95,4.54,16.54-4.25-6.42-8.71-12.71-13.78-18.86-4.84-5.86-7.82-13-8.64-20.55-1.7-15.64-5.67-30.76-13.86-43.56-8.44-13.18-21.81-26.12-36.77-35.47-2.45,16.96-2.35,34.05,2.45,49.84,5.12,16.82,16.79,30.22,33.4,37.7,8.07,3.64,15.36,7.85,21.09,14.92,8.67,10.69,15.31,22.24,21.11,34.87,9.42,20.52,19.76,39.36,31.23,59.61l-27.53-18.32c-6.14-4.09-14.2-31.85-45.73-47.54-12.36-6.15-25.72-10.18-40.81-11.64,4.5,14.6,10.68,28.03,19.57,39.3,12.12,15.37,31.77,22.83,51.95,23.74,8.99.4,17.02,2.88,24.75,7.5,11.64,6.96,21.93,15.56,30.45,26.61,15.08,19.55,28.82,39.59,45.51,57.47-.95.35-1.37.25-1.78.25,0,0-19.21-8.44-19.22-8.44-6.2-2.72-11.03-6.76-16.1-11.13-14.09-12.17-29.57-21.82-48.31-24.2-8.82-1.12-17.77-.94-26.59.02-4.41.48-8.79,1.16-13.15,2.01-1.33.26-11.53,3.37-12.09,2.74,8.78,9.72,17.45,17.76,27.23,24.47,18.78,12.88,41.58,17.34,64.3,11.83,7.94-1.93,15.91-2.63,24-1.16,6.09,1.1,13.1,2.67,17.97,6.75,5.87,4.91,11.89,9.54,17.39,14.87s12.15,9.52,16.77,15.11c7.01,8.5,41.17,32.18,50.56,29.53.7-.2,8.47-.64,4.45-4.2-12.79-8.01-25.02-17-36.15-27.21-6.64-6.1-13.13-12.47-18.5-19.74-2.71-3.68-5.36-7.65-7.18-11.86-1.68-3.89-6.38-9.62-5.43-13.95,1.78-8.04,8.9-14.57,11.32-22.43,2.74-8.9,3.45-19.42,2.16-28.65-.51-3.62-1.49-7.24-3.34-10.41-1.69-2.9-3.87-5.42-4.28-8.86-.4-3.39-2.09-1.19-3.64.45-8.27,8.71-15.07,18.98-16.66,31.13-.97,7.43-.16,15.08,2.27,22.17,1.5,4.37,3.98,8.31,5.88,12.51,1.29,2.87,4.64,10.37,2.09,13.27-2.83,3.21-9.7-6.24-11.52-8.46,0,0-13.14-15.98-13.14-15.98-7.47-12.36-12-27.88-9.45-42.38,1.93-10.94,25.76-30.97,20.41-65.55-1.24-12.83-5.46-25.37-11.69-37.46l-14.64,23.23c-5.85,9.28-8.65,19.85-9.86,30.31-2.97,25.7,8.81,42.31,10.08,53.05,1.03,8.74,3.01,16.34,4.92,25.57-14.09-18.38-26.53-36.76-37.51-56.9-7.23-13.25-9.21-28.15-9.15-42.56,1.54-6.99.04-10.7,6.34-18.6,23.62-29.64,23.85-62.83,8.87-96.79-20.36,27.93-31.32,57.3-21.84,90.78l3.6,16.44c-1.23,9.31-.08,18.21.77,28.48-.15-1.75-1.81-3.45-2.64-4.91-4.56-8.06-7.2-17.68-10.18-26.41-3.24-9.47-6.1-19.09-8.05-28.92-4.4-22.15-6.13-44.66-4.69-67.22,1.87-29.27,9.68-57.97,20.62-85.09,12.8-31.71,31.44-60.04,53.6-85.82l4.72-4.82c63.38-67.81,156.98-101.58,248.63-89.23l15.54,3.01.58-.58-12.05-3.26Z"/>
      <path class="cls-9" d="M824.09,275.53l-100.39.07c-1.26,0-1.34,4.44.15,4.47,8.83.17,17.4,1.38,24.18,6.92,11.46,9.36,3.82,31.64-2.62,46.65l-97.71,227.92-17.36-39.04-73.05-162.7-17.2-37.92c-5.35-11.81-9.24-28.34-.05-34.84,6.07-4.29,13.55-5.08,21.07-5.1,1.86,0,1.93-4.31-.13-4.31l-125.04.1c-1.55,0-1.35,4.18-.08,4.24,26.52,1.21,45.3,21.4,57.64,43.58,8.33,14.99,15.43,29.71,22.69,45.5l110.91,241.22,7.45,15.94,3.11-7.18,4.3-9.68,2.38-6.48,111.7-250.63c7.77-17.43,15.24-34.04,25.15-49.89,9.54-15.26,24.7-24.5,42.69-24.37.43-1.4.48-2.48.21-4.47Z"/>
    </g>
  </g>
  <g id="Layer_2" data-name="Layer 2">
    <g>
      <path class="cls-12" d="M375.91,1009.77h-6.15v-39.79h6.15v39.79Z"/>
      <path class="cls-12" d="M399.73,969.99h7.29l13.74,28.3,13.77-28.3h7.27v39.79h-6.21v-28.51l-12.63,25.69h-4.39l-12.63-25.69v28.51h-6.21v-39.79Z"/>
      <path class="cls-12" d="M465.61,1009.77v-39.76h16.35c8.2,0,13.51,5.07,13.51,12.45s-5.3,12.48-13.51,12.48h-10.2v14.82h-6.15ZM471.76,989.32h9.93c4.83,0,7.35-3.05,7.35-6.86s-2.52-6.86-7.35-6.86h-9.93v13.71Z"/>
      <path class="cls-12" d="M507.88,1009.77l16.44-39.79h6.68l16.44,39.79h-6.56l-3.16-8.29h-20.1l-3.16,8.29h-6.56ZM535.86,996.35l-8.2-19.48-8.2,19.48h16.41Z"/>
      <path class="cls-12" d="M583.16,969.4c7.24,0,13.65,3.54,17.49,9.7l-4.78,3.34c-3.19-4.8-7.47-7.21-12.71-7.21-8.17,0-14,6.15-14,14.65s5.95,14.65,14.15,14.65c5.27,0,9.79-2.46,12.89-7.03l4.6,3.19c-3.75,6.09-10.2,9.67-17.49,9.67-11.54,0-20.6-8.85-20.6-20.48s8.94-20.48,20.45-20.48Z"/>
      <path class="cls-12" d="M616.32,969.99h32.34v5.77h-13.1v34.01h-6.12v-34.01h-13.12v-5.77Z"/>
      <path class="cls-12" d="M720.81,969.99h27.69v5.6h-21.53v11.1h16.9v5.6h-16.9v17.49h-6.15v-39.79Z"/>
      <path class="cls-12" d="M768.35,995.39v-25.4h6.09v25.14c0,5.83,4.16,9.52,10.63,9.52s10.61-3.69,10.61-9.52v-25.14h6.09v25.4c0,9.11-6.5,14.97-16.7,14.97s-16.73-5.86-16.73-14.97Z"/>
      <path class="cls-12" d="M825.15,1009.77v-39.79h6.15l24.23,30.32v-30.32h6.15v39.79h-6.21l-24.17-30.03v30.03h-6.15Z"/>
      <path class="cls-12" d="M901.49,970.02c11.81,0,20.45,8.5,20.45,19.89s-8.64,19.86-20.45,19.86h-16v-39.76h16ZM901.4,1004.21c8.47,0,14.09-6.24,14.09-14.3s-5.62-14.38-14.09-14.38h-9.76v28.68h9.76Z"/>
    </g>
    <g>
      <path class="cls-11" d="M237.57,833.43c-2.28-5.95-4.38-7-8.93-8.4v-2.27c2.62,0,12.78.35,15.58.35,2.62,0,12.78-.35,15.58-.35v2.27c-2.98.7-7.17,2.98-7.17,5.95,0,1.58,1.05,4.2,1.75,6.12l29.75,79.1,30.63-77.18c1.4-3.5,1.05-7.17.88-8.4-.7-3.5-1.93-4.73-5.77-5.6v-2.27c2.45,0,9.8.35,12.42.35,2.45,0,9.8-.35,12.43-.35v2.27c-5.08,1.23-7.52,3.5-9.8,9.1l-41.13,103.08h-7.35l-38.85-103.78Z"/>
      <path class="cls-11" d="M392.97,933.18c5.78-1.23,9.1-3.85,9.1-9.45v-89.25c0-5.6-3.32-8.22-9.1-9.45v-2.27c1.23,0,13.83.35,16.8.35,2.62,0,14.7-.35,16.1-.35v2.27c-5.6,1.58-9.28,3.68-9.28,9.45v89.25c0,5.77,3.68,7.88,9.28,9.45v2.27c-1.23,0-13.48-.35-16.1-.35-2.98,0-15.4.35-16.8.35v-2.27Z"/>
      <path class="cls-11" d="M491.32,933.18c5.07-1.05,8.23-5.08,8.23-9.62v-89.08c0-4.38-2.98-8.22-8.4-9.45v-2.27c2.1,0,12.95.35,15.93.35,5.08,0,19.43-1.05,25.2-1.05,19.95,0,39.2,9.28,39.2,32.73,0,14.35-10.5,25.55-26.78,29.4l27.48,35.7c4.03,5.25,9.45,10.68,14.18,13.3v1.92c-14,2.28-19.95,1.22-28.53-9.98l-30.45-39.55c-4.9,0-9.62-.35-13.3-.88v38.85c0,4.55,3.32,8.4,8.57,9.62v2.27c-2.1,0-13.12-.35-16.1-.35-2.62,0-12.95.35-15.23.35v-2.27ZM514.07,878.23c2.97.53,9.27,1.05,14.7,1.05,20.12,0,27.3-12.95,27.3-24.67,0-16.45-10.85-26.78-28.35-26.78-3.85,0-9.98.35-13.65,1.4v49Z"/>
      <path class="cls-11" d="M666.67,933.18c5.08-1.05,9.97-5.08,9.97-9.62v-92.75h-24.33c-7.35,0-11.55,2.8-14.17,12.95h-2.28l-.35-21.7c5.95.35,12.95,1.05,48.48,1.05s42.35-.7,48.3-1.05l-.35,21.7h-2.27c-2.45-9.98-6.65-12.95-14.18-12.95h-24.33v92.75c0,4.55,5.08,8.4,10.33,9.62v2.27c-2.1,0-14.88-.35-17.85-.35-2.62,0-14.7.35-16.97.35v-2.27Z"/>
      <path class="cls-11" d="M801.77,834.65c0-4.55-3.33-8.4-8.58-9.62v-2.27c2.1,0,13.12.35,16.1.35,2.62,0,12.95-.35,15.22-.35v2.27c-5.07,1.05-8.22,5.08-8.22,9.62v65.1c0,20.65,14.88,30.45,29.93,30.45,17.67,0,36.05-8.58,36.05-30.45v-65.28c0-5.6-3.33-8.22-9.1-9.45v-2.27c1.22,0,9.98.35,12.95.35,2.62,0,11.55-.35,12.95-.35v2.27c-5.6,1.58-9.28,3.68-9.28,9.45v60.9c0,27.65-15.58,41.83-46.73,41.83-28.7,0-41.3-16.8-41.3-41.83v-60.73Z"/>
      <path class="cls-11" d="M963.47,933.18c5.42-1.05,8.4-5.43,8.4-9.98v-88.73c0-4.38-3.15-8.22-8.4-9.45v-2.27h66.33c1.92,0,9.1-.4,9.1-.4l-.35,19.12h-2.27c-2.28-7-7.53-11.2-16.63-11.2h-33.25v42.53h29.58c4.9,0,7.7-1.58,9.98-5.78h2.27c-.17,1.75-.17,7.17-.17,9.28,0,1.92.17,7.52.17,9.45h-2.27c-2.28-4.03-5.08-5.78-9.98-5.78h-29.58v47.6h32.9c11.2,0,16.62-3.5,19.78-10.5l2.28.53-2.63,18.38c-8.92-.88-14.88-.88-26.08-.88h-33.25c-2.98,0-13.65.35-15.93.35v-2.27Z"/>
    </g>
  </g>
</svg>